<svg width="200" height="202" viewBox="0 0 200 202" fill="none" xmlns="http://www.w3.org/2000/svg">
<rect width="200" height="202" rx="50" fill="#FFE9C7"/>
<path d="M146 59C158.703 59 169 69.2975 169 82V146C169 158.703 158.703 169 146 169H55C42.2974 169 32 158.703 32 146V82C32 69.2975 42.2974 59 55 59H146Z" stroke="#FF5521" stroke-width="20"/>
<ellipse cx="99.5" cy="49.9207" rx="17.5" ry="13" fill="#FF5521"/>
<path d="M143.517 25.109C145.234 23.719 145.499 21.2002 144.109 19.4832C142.719 17.7662 140.2 17.501 138.483 18.891L141 22L143.517 25.109ZM113.333 44.3968L115.85 47.5058L143.517 25.109L141 22L138.483 18.891L110.817 41.2878L113.333 44.3968Z" fill="#FF5521"/>
<path d="M55.4832 25.109C53.7662 23.719 53.501 21.2002 54.891 19.4832C56.281 17.7662 58.7997 17.501 60.5168 18.891L58 22L55.4832 25.109ZM85.6667 44.3968L83.1499 47.5058L55.4832 25.109L58 22L60.5168 18.891L88.1834 41.2878L85.6667 44.3968Z" fill="#FF5521"/>
</svg>
