<svg width="238" height="238" viewBox="0 0 238 238" fill="none" xmlns="http://www.w3.org/2000/svg">
<circle cx="119" cy="119" r="119" fill="#FFE9C7"/>
<path d="M165 74C177.703 74 188 84.2975 188 97V161C188 173.703 177.703 184 165 184H74C61.2974 184 51 173.703 51 161V97C51 84.2975 61.2974 74 74 74H165Z" stroke="#FF5521" stroke-width="20"/>
<ellipse cx="118.5" cy="64.9207" rx="17.5" ry="13" fill="#FF5521"/>
<path d="M162.517 40.109C164.234 38.719 164.499 36.2002 163.109 34.4832C161.719 32.7662 159.2 32.501 157.483 33.891L160 37L162.517 40.109ZM132.333 59.3968L134.85 62.5058L162.517 40.109L160 37L157.483 33.891L129.817 56.2878L132.333 59.3968Z" fill="#FF5521"/>
<path d="M74.4832 40.109C72.7662 38.719 72.501 36.2002 73.891 34.4832C75.281 32.7662 77.7997 32.501 79.5168 33.891L77 37L74.4832 40.109ZM104.667 59.3968L102.15 62.5058L74.4832 40.109L77 37L79.5168 33.891L107.183 56.2878L104.667 59.3968Z" fill="#FF5521"/>
</svg>
